<?xml version="1.0" standalone="no"?>
<!DOCTYPE svg PUBLIC "-//W3C//DTD SVG 20010904//EN"
 "http://www.w3.org/TR/2001/REC-SVG-20010904/DTD/svg10.dtd">
<svg version="1.0" xmlns="http://www.w3.org/2000/svg"
 width="512.000000pt" height="512.000000pt" viewBox="0 0 512.000000 512.000000"
 preserveAspectRatio="xMidYMid meet">
<metadata>
Created by potrace 1.14, written by Peter Selinger 2001-2017
</metadata>
<g transform="translate(0.000000,512.000000) scale(0.100000,-0.100000)"
fill="#000000" stroke="none">
<path d="M2278 5115 c-1 -1 -60 -6 -130 -9 -71 -4 -136 -9 -145 -10 -10 -2
-56 -7 -103 -11 -47 -4 -94 -9 -105 -11 -11 -2 -49 -7 -84 -10 -36 -3 -67 -7
-70 -9 -3 -1 -31 -6 -61 -10 -194 -23 -595 -108 -856 -180 -184 -52 -578 -179
-599 -194 -5 -4 -36 -16 -67 -26 -43 -14 -58 -24 -58 -38 0 -16 104 -240 129
-276 7 -10 13 -12 23 -5 26 20 265 113 458 177 282 95 569 168 860 217 167 28
166 28 235 36 33 3 68 8 77 9 9 2 48 7 85 10 37 4 79 8 92 10 165 27 930 26
1211 0 126 -12 384 -46 460 -60 14 -3 39 -7 55 -10 17 -3 39 -7 50 -9 11 -2
67 -14 125 -26 339 -69 762 -202 1092 -344 l36 -16 61 123 c34 67 64 136 67
152 5 30 4 30 -73 59 -211 77 -583 198 -681 221 -10 3 -69 18 -132 34 -114 30
-308 72 -435 96 -63 11 -281 46 -319 50 -23 3 -52 7 -66 10 -14 2 -56 7 -95
10 -38 4 -77 8 -85 10 -8 2 -55 7 -105 10 -49 3 -110 8 -135 11 -51 6 -706 14
-712 9z"/>
<path d="M1828 4608 c-37 -3 -89 -9 -115 -12 -27 -4 -68 -9 -93 -12 -39 -5
-200 -32 -295 -49 -196 -36 -466 -108 -670 -177 -192 -66 -435 -165 -435 -179
0 -10 56 -78 113 -138 114 -119 259 -223 436 -313 62 -32 119 -58 125 -58 6 0
17 26 25 58 17 73 40 118 86 164 56 57 172 105 300 123 22 3 51 8 65 10 41 7
197 16 332 20 111 2 128 0 133 -14 4 -15 38 -189 50 -266 3 -16 10 -52 15 -80
5 -27 12 -63 15 -80 3 -16 7 -41 10 -55 26 -150 38 -215 59 -335 14 -77 28
-151 30 -165 3 -14 7 -41 10 -60 3 -19 8 -48 11 -65 3 -16 8 -41 11 -55 2 -14
11 -62 19 -107 8 -45 17 -92 19 -105 3 -13 8 -39 11 -58 2 -19 7 -46 10 -60 2
-14 7 -36 10 -50 2 -14 7 -41 10 -60 11 -66 66 -375 75 -420 5 -25 16 -85 25
-135 8 -49 17 -101 20 -115 7 -32 10 -53 30 -170 8 -52 22 -129 30 -170 8 -41
17 -91 20 -110 4 -19 17 -93 30 -165 13 -71 26 -146 29 -165 3 -19 8 -46 11
-60 3 -14 8 -38 10 -55 13 -70 25 -142 30 -165 3 -14 10 -51 15 -82 6 -32 14
-84 20 -115 5 -32 12 -68 14 -79 2 -12 7 -37 10 -55 3 -19 17 -96 31 -171 14
-76 25 -147 25 -160 0 -60 20 15 49 182 18 102 36 205 41 230 5 25 11 59 14
75 2 17 7 41 10 55 3 14 7 39 10 55 3 23 150 848 171 965 3 14 9 52 15 85 5
33 12 71 15 85 6 31 23 124 30 170 3 19 8 42 10 50 2 8 7 34 10 58 3 24 13 80
21 125 8 45 26 145 40 222 14 77 28 154 30 170 5 29 27 157 39 220 6 35 47
261 70 390 9 50 18 101 20 115 41 224 58 320 61 345 3 17 9 53 15 81 5 28 12
62 14 77 3 15 7 39 10 55 3 15 10 56 16 92 6 36 12 72 14 80 2 8 4 17 4 21 1
3 54 4 119 3 407 -7 612 -50 716 -151 53 -52 90 -131 95 -205 2 -28 20 -22
143 41 223 114 389 244 518 406 17 21 30 41 30 45 0 16 -348 154 -515 204 -49
15 -101 31 -115 36 -76 29 -508 126 -645 146 -22 3 -51 7 -65 9 -136 21 -250
33 -375 40 l-100 6 -60 -77 c-33 -42 -64 -82 -70 -88 -20 -23 -71 -83 -105
-126 -52 -64 -187 -229 -226 -275 -18 -22 -40 -49 -48 -60 -14 -19 -16 -19
-28 -3 -24 31 -173 211 -193 234 -11 12 -87 106 -170 208 l-150 186 -70 -3
c-38 -1 -100 -5 -137 -9z"/>
</g>
</svg>
